<?xml version="1.0" standalone="no"?>
<!DOCTYPE svg PUBLIC "-//W3C//DTD SVG 20010904//EN"
 "http://www.w3.org/TR/2001/REC-SVG-20010904/DTD/svg10.dtd">
<svg version="1.0" xmlns="http://www.w3.org/2000/svg"
 width="87.000000pt" height="87.000000pt" viewBox="0 0 87.000000 87.000000"
 preserveAspectRatio="xMidYMid meet">
<metadata>
Created by potrace 1.14, written by Peter Selinger 2001-2017
</metadata>
<g transform="translate(0.000000,87.000000) scale(0.100000,-0.100000)"
fill="#000000" stroke="none">
<path d="M210 650 c0 -15 -7 -20 -25 -20 -20 0 -25 -5 -25 -25 0 -20 -5 -25
-25 -25 -25 0 -25 -1 -25 -80 0 -79 0 -80 25 -80 20 0 25 -5 25 -25 0 -20 5
-25 25 -25 20 0 25 -5 25 -25 0 -20 5 -25 25 -25 20 0 25 -5 25 -25 0 -20 5
-25 25 -25 20 0 25 -5 25 -25 0 -20 5 -25 25 -25 18 0 25 -5 25 -19 0 -13 8
-21 23 -23 14 -2 23 -11 25 -25 2 -17 10 -23 27 -23 17 0 25 6 27 23 2 14 11
23 26 25 14 2 22 10 22 22 0 12 8 20 23 22 14 2 23 11 25 25 2 14 11 23 25 25
14 2 23 11 25 25 2 14 11 23 25 25 14 2 23 11 25 25 2 14 11 23 25 25 14 2 23
11 25 25 2 14 11 23 25 25 20 3 22 8 22 78 0 70 -2 75 -22 78 -14 2 -23 11
-25 25 -2 14 -11 23 -25 25 -15 2 -23 10 -23 23 0 17 -8 19 -75 19 -68 0 -75
-2 -75 -20 0 -15 -7 -20 -25 -20 -20 0 -25 -5 -25 -25 0 -34 -47 -37 -52 -2
-2 14 -11 23 -25 25 -15 2 -23 10 -23 23 0 17 -8 19 -75 19 -68 0 -75 -2 -75
-20z m90 -84 c0 -2 3 -11 6 -20 5 -12 0 -16 -20 -16 -21 0 -26 -5 -26 -25 0
-20 -5 -25 -25 -25 -23 0 -25 4 -25 45 l0 45 45 0 c25 0 45 -2 45 -4z"/>
</g>
</svg>
